<?xml version="1.0" standalone="no"?>
<!DOCTYPE svg PUBLIC "-//W3C//DTD SVG 20010904//EN"
 "http://www.w3.org/TR/2001/REC-SVG-20010904/DTD/svg10.dtd">
<svg version="1.0" xmlns="http://www.w3.org/2000/svg"
 width="1200.000000pt" height="1200.000000pt" viewBox="0 0 1200.000000 1200.000000"
 preserveAspectRatio="xMidYMid meet">

<g transform="translate(0.000000,1200.000000) scale(0.100000,-0.100000)"
fill="#000000" stroke="none">
<path d="M7070 9493 c-395 -64 -681 -218 -837 -448 -132 -196 -202 -458 -203
-757 l0 -88 28 0 c59 0 261 42 361 76 312 104 499 257 622 509 79 163 116 330
126 568 l6 147 -39 -1 c-21 -1 -50 -4 -64 -6z"/>
<path d="M5246 9088 c-11 -34 -13 -149 -5 -239 24 -259 140 -435 359 -548 77
-40 203 -83 277 -96 l41 -6 7 84 c13 150 -19 326 -81 449 -71 142 -227 264
-419 327 -116 38 -174 47 -179 29z"/>
<path d="M5830 8064 c-344 -30 -639 -105 -906 -233 -777 -372 -1292 -1086
-1400 -1941 -21 -167 -15 -531 11 -679 66 -381 186 -685 390 -991 402 -601
1017 -980 1755 -1081 143 -20 468 -17 625 5 832 117 1536 630 1896 1381 225
470 295 967 208 1483 -165 989 -928 1789 -1909 2002 -52 12 -139 27 -195 35
-101 15 -392 26 -475 19z m150 -1113 l0 -519 23 -6 c12 -3 37 -6 55 -6 96 0
281 -67 389 -141 160 -110 281 -284 334 -484 30 -112 30 -288 0 -400 -41 -154
-134 -313 -239 -406 -146 -130 -354 -218 -514 -219 l-48 0 0 -526 0 -527 -117
6 c-748 35 -1428 558 -1667 1282 -266 802 36 1680 739 2150 286 192 648 310
958 314 l87 1 0 -519z"/>
<path d="M5774 6396 c-246 -64 -443 -228 -549 -459 -56 -122 -69 -185 -69
-342 0 -104 5 -157 18 -205 62 -224 211 -414 410 -524 80 -44 218 -86 306 -93
l80 -6 0 827 0 826 -52 0 c-29 -1 -94 -12 -144 -24z"/>
</g>
</svg>
